# xmcd
# 
# Track frame offsets:
#     150
#     13336
#     24925
#     35751
#     47285
#     58520
#     71979
#     84646
#     95247
#     106299
#     121040
#     134545
#     147025
#     160555
#     172854
#     184383
#     197676
#     211517
#     224817
#     236811
#     251917
#     265007
#     276457
#     286760
#     300156
# 
# Disc length: 4172
# 
# Revision: 0
# Processed by: cddbd v1.5.2PL0 Copyright (c) Steve Scherf et al.
# Submitted via: fre:ac v1.0.27
# 
DISCID=6c104a19
DTITLE=Various Artist - Hot Hundred Blues - Disc 2
DYEAR=2014
DGENRE=Blues
TTITLE0=Muddy Waters - Mannish Boy
TTITLE1=Howlin' Wolf - Howlin' For My Baby
TTITLE2=Jimmy Reed - Take Out Some Insurance
TTITLE3=John Lee Hooker - I Love You, Honey
TTITLE4=Robert Johnson - Walkin' Blues
TTITLE5=Lightnin' Hopkins - Katie Mae Blues
TTITLE6=B. B. King - Got The Blues
TTITLE7=Elmore James - (I Must Have) Done Something Wrong
TTITLE8=Alexis Korner - Gotta Move
TTITLE9=T-Bone Walker - T-Bone Blues
TTITLE10=Blind Lemon Jefferson - Black Snake Blues
TTITLE11=Big Bill Broonzy - I Feel So Good
TTITLE12=Albert Ammons - Albert's Special Boogie Woogie
TTITLE13=Little Walter - Juke
TTITLE14=Willie Dixon - Burying Ground
TTITLE15=Big Maceo - Chicago Breakdown
TTITLE16=Lonnie Johnson - Tomorrow Night
TTITLE17=J. B. Lenoir - The Mojo
TTITLE18=Eddie Boyd - Five Long Years
TTITLE19=B. B. King - My Own Fault Darlin'
TTITLE20=Howlin' Wolf - Evil (Is Goin' On)
TTITLE21=Muddy Waters - Hard Days
TTITLE22=Lightnin' Hopkins - Miss Me Blues
TTITLE23=Bessie Smith - Nobody Knows When You're Down And Out
TTITLE24=Robert Johnson - 32-20 Blues
EXTD=
EXTT0=
EXTT1=
EXTT2=
EXTT3=
EXTT4=
EXTT5=
EXTT6=
EXTT7=
EXTT8=
EXTT9=
EXTT10=
EXTT11=
EXTT12=
EXTT13=
EXTT14=
EXTT15=
EXTT16=
EXTT17=
EXTT18=
EXTT19=
EXTT20=
EXTT21=
EXTT22=
EXTT23=
EXTT24=
PLAYORDER=
